<svg width="255" height="161" viewBox="0 0 255 161" fill="none" xmlns="http://www.w3.org/2000/svg">
<path d="M180.5 127.5H29.2315L29.3813 127.323L180.5 127.5Z" fill="white"/>
<path d="M71.7517 81.5H71.7478L71.6017 81.6978L71.7517 81.5Z" fill="white"/>
<path d="M15.672 21.6633L28.388 81.5251L71.7478 81.5L93.6017 52.6978L180.5 82V127.5H29.2315L1.38126 160.323L239 158L238.682 69.5L238.567 37.5H238.5V19L212.5 18.9418L15 18.5C15.1516 19.193 15.3799 20.2702 15.672 21.6633Z" fill="white"/>
<path d="M254 29.5H244V37.5H238.567L238.682 69.5H244V75.5H254V29.5Z" fill="white"/>
<path d="M29 127.5H29.2315M238.5 19V37.5H238.567M238.5 19L212.5 18.9418M238.5 19L238.567 37.5M28.5116 82.1068L15.672 21.6633M15 18.5L212.5 18.9418M15 18.5C15.1516 19.193 15.3799 20.2702 15.672 21.6633M15 18.5L15.672 21.6633M28.388 81.5251L71.7478 81.5M28.388 81.5251L15.672 21.6633M28.388 81.5251C24.6009 65.0555 18.0409 32.9642 15.672 21.6633M72 81.5H71.7517M93.6017 52.6978L180.5 82V127.5M93.6017 52.6978L71.7517 81.5M93.6017 52.6978L71.7478 81.5M49.5 105V82M212.5 0V18.9418M212.5 19V18.9418M238 69.5H238.682M180.5 127.5L29.3813 127.323L29.2315 127.5M180.5 127.5H29.2315M29.2315 127.5L1.38126 160.323L239 158L238.682 69.5M71.7517 81.5H71.7478M71.7517 81.5L71.6017 81.6978L71.7478 81.5M238.682 69.5L238.567 37.5M238.682 69.5H244V75.5H254V29.5H244V37.5H238.567" stroke="white"/>
</svg>
